{"title":"Howl 2010 LIMITED DvDRip H264 Feel-Free","uid":6060329,"size":1167427537,"categoryP":"video","categoryS":"movies","magnet":"?xt=urn:btih:ab9a1f096c84a218073ea13bd6fb815e9bbcc47f&amp;dn=Howl+2010+LIMITED+DvDRip+H264+Feel-Free&amp;tr=udp%3A%2F%2Ftracker.openbittorrent.com%3A80&amp;tr=udp%3A%2F%2Fopen.demonii.com%3A1337&amp;tr=udp%3A%2F%2Ftracker.coppersurfer.tk%3A6969&amp;tr=udp%3A%2F%2Fexodus.desync.com%3A6969","seeders":0,"leechers":1,"uploader":"hiest","files":-1,"time":1293093660,"description":"Genre:Drama \nLanguage:English\nIMDb:http://www.imdb.com/title/tt1049402/\nSource:DVD\n\n\nFormat : MPEG-4\nFormat profile : Base Media\nCodec ID : isom\nFile size : 1.08 GiB\nDuration : 1h 24mn\nOverall bit rate : 1 838 Kbps\nMovie name : Howl 2010 LIMITED DvDRip H264 Feel-Free\n\n\nVideo\nFormat settings, CABAC : Yes\nFormat settings, ReFrames : 4 frames\nCodec ID : avc1\nCodec ID/Info : Advanced Video Coding\nDuration : 1h 24mn\nBit rate mode : Variable\nBit rate : 1 500 Kbps\nWidth : 720 pixels\nHeight : 384 pixels\nDisplay aspect ratio : 1.875\nFrame rate mode : Constant\nFrame rate : 23.976 fps\nColor space : YUV\nChroma subsampling : 4:2:0\nBit depth : 8 bits\nScan type : Progressive\nBits/(Pixel*Frame) : 0.226\nStream size : 893 MiB (80%)\n\n\nAudio\nID : 2\nFormat : AAC\nFormat/Info : Advanced Audio Codec\nFormat version : Version 4\nFormat profile : LC\nCodec ID : 40\nDuration : 1h 24mn\nBit rate mode : Variable\nBit rate : 352.8 Kbps\nChannel(s) : 6 channels\nChannel positions : Front: L C R, Side: L R, LFE\nSampling rate : 48.0 KHz\nStream size : 215 MiB (19%)\n\n\nPlot:\nAs Alan Ginsberg talks about his life and art, his most famous poem is illustrated in animation while the obscenity trial of the work is dramatized.\n\n\n\n\n\n\n\n================================== &lt;a href=&quot;\nhttp://thepiratebay.se/user/hiest&quot; rel=&quot;nofollow&quot; target=&quot;_NEW&quot;&gt;\nhttp://thepiratebay.se/user/hiest&lt;/a&gt;\n==================================","torrent":{"xt":"urn:btih:ab9a1f096c84a218073ea13bd6fb815e9bbcc47f","amp;dn":"Howl+2010+LIMITED+DvDRip+H264+Feel-Free","amp;tr":["udp%3A%2F%2Ftracker.openbittorrent.com%3A80","udp%3A%2F%2Fopen.demonii.com%3A1337","udp%3A%2F%2Ftracker.coppersurfer.tk%3A6969","udp%3A%2F%2Fexodus.desync.com%3A6969"],"infoHash":"ab9a1f096c84a218073ea13bd6fb815e9bbcc47f","infoHashBuffer":{"type":"Buffer","data":[171,154,31,9,108,132,162,24,7,62,161,59,214,251,129,94,155,188,196,127]},"announce":[],"urlList":[]}}